<svg xmlns="http://www.w3.org/2000/svg" viewBox="0 0 416 80" height="80" width="416">
  <path fill="#FF2636"
    d="M66.6 6.9V4A3.7 3.7 0 0 0 62.9.3h-9.3A3.7 3.7 0 0 0 49.9 4v2H12C7.2 6 0 9.4 0 18.2V68c0 4.8 3.2 12 12 12h50c4.8 0 12-3.2 12-12V18c0-3.8-2-9-7.4-11" />
  <path fill="#FFFFFE"
    d="M44.5 59a2.2 2.2 0 0 0-2.8-1.4 15.4 15.4 0 1 1-4.7-30 15.4 15.4 0 0 1 4.7.8 2.2 2.2 0 0 0 2.8-1.4l1.9-5.8a2.2 2.2 0 0 0-1.4-2.8 25.9 25.9 0 0 0-8-1.2 25.9 25.9 0 1 0 8 50.4 2.2 2.2 0 0 0 1.4-2.7L44.5 59" />
  <path fill="#FFFFFE"
    d="M60.6 40.8h-6a2.2 2.2 0 1 0 0 4.4h6a2.2 2.2 0 1 0 0-4.4m-9.6-4a2.2 2.2 0 0 0 3 1.1l5.52-2.48a2.2 2.2 0 1 0-1.82-4.02l-5.6 2.5a2.2 2.2 0 0 0-1.1 2.9m-.79-5.21 4.19-4.69a2.2 2.2 0 1 0-3.2-3L47 28.6a2.2 2.2 0 0 0 .2 3.1 2.2 2.2 0 0 0 3-.1m.2 23a2.2 2.2 0 0 0-3.3 3l4 4.5a2.2 2.2 0 0 0 3.4-3l-4.1-4.5m9.1-3.99-5.6-2.41a2.2 2.2 0 0 0-1.8 4l5.6 2.5a2.2 2.2 0 0 0 1.8-4.09" />
  <path fill="#686968"
    d="M 120.9 61 l -1.7 -4.9 c -0.4 -1 -1.3 -1.6 -2.4 -1.6 a 2.6 2.6 0 0 0 -0.8 0.1 a 13.4 13.4 0 0 1 -4 0.6 c -3.4 0 -6.7 -1.3 -9.1 -3.6 a 12.1 12.1 0 0 1 -3.8 -8.8 c 0 -6.9 5.8 -12.5 13 -12.5 a 13.4 13.4 0 0 1 4 0.6 l 0.7 0.1 c 1 0 2 -0.6 2.4 -1.6 l 1.6 -5 a 2.3 2.3 0 0 0 -0.1 -1.7 a 2.4 2.4 0 0 0 -1.5 -1.3 a 24 24 0 0 0 -7.2 -1 c -12.8 0 -23.2 10 -23.2 22.4 a 22.9 22.9 0 0 0 23.2 22.4 a 24 24 0 0 0 7.3 -1.1 a 2.4 2.4 0 0 0 1.4 -1.2 c 0.3 -0.6 0.3 -1.3 0.2 -1.9" />
  <path fill="#686968"
    d="M132.8 42.9a12.2 12.2 0 0 0 12.5 12.6c3.4 0 6.4-1.3 8.9-3.7 2.4-2.4 3.6-5.4 3.6-9 0-3.5-1.2-6.5-3.6-9a12.1 12.1 0 0 0-9-3.6c-3.4 0-6.4 1.2-8.9 3.7a12.2 12.2 0 0 0-3.6 9h-.4.4zM144 65.2a20 20 0 0 1-15.2-6.5c-4-4.4-6.1-9.7-6.1-16a22.4 22.4 0 0 1 22.7-22.5 22 22 0 0 1 16 6.6c4.5 4.2 6.7 9.6 6.7 16v19.4a3 3 0 0 1-3 3h-3.5c-1.7 0-3-1.1-3-3v-3.7s0-.3-.3-.3c0 0-.3.1-.5.4-3.3 4.4-8 6.6-13.8 6.6" />
  <path fill="#686968"
    d="M200.1 22.4a5.1 5.1 0 0 0-.3-.2c-1.5-.8-3.2-1.2-5-1.2-3.7 0-6.8 1.8-9.2 5.2 0 0-.7.9-.7 0v-1.7c0-.7-.2-1.3-.8-1.9-.5-.5-1-.7-1.8-.7h-4.7c-.7 0-1.3.2-1.9.7-.5.5-.7 1-.7 1.8v38.2c0 .7.2 1.4.7 1.8.6.5 1.2.8 1.9.8h5c.6 0 1.2-.2 1.7-.7.6-.5.8-1.1.8-2V43.3c0-4 .9-7 2.6-9.4 1.7-2.3 3.7-3.5 6-3.5.7 0 1.3.1 2 .3.8.2 1.6-.2 2-1l3-5.5c.3-.6 0-1.4-.6-1.7" />
  <path fill="#686968"
    d="M223 30c-3.4 0-6.5 1.3-8.9 3.7a12.3 12.3 0 0 0-3.6 9c0 3.6 1.2 6.6 3.6 9 2.4 2.5 5.5 3.7 9 3.7s6.4-1.2 8.9-3.7c2.4-2.4 3.7-5.5 3.7-9s-1.3-6.5-3.7-9a12.2 12.2 0 0 0-9-3.7zm0 35.2a22.4 22.4 0 0 1-22.6-22.5A22.4 22.4 0 0 1 223 20.3a22 22 0 0 1 16 6.5c4.5 4.2 6.7 9.6 6.7 16 0 6.3-2.2 11.6-6.6 16a22 22 0 0 1-16.1 6.4" />
  <path fill="#686968"
    d="M 269.2 65.2 c -5.142 -0.022 -9.4 -1.6 -12.7 -5 c -3.3 -3.3 -5 -7.6 -5 -12.8 v -22.7 a 3 3 0 0 1 3 -3 h 4 a 3 3 0 0 1 3 3 v 22.8 c 0 4.7 3.2 7.8 7.7 7.8 c 4.7 0 7.8 -3.1 7.8 -7.8 v -22.8 a 3 3 0 0 1 3 -3 h 4.1 a 3 3 0 0 1 3 3 v 22.7 c 0 5.2 -1.7 9.5 -5 12.9 c -3.3 3.3 -7.588 4.856 -12.9 4.9" />
  <path fill="#686968"
    d="M 307 65.3 c -5.4 0 -10 -2 -13.6 -5.6 c -1.5 -1.5 -1.6 -3 -0.2 -4.6 l 0.9 -1 c 0.8 -1 1.7 -1.5 2.6 -1.5 c 0.8 0 1.6 0.4 2.4 1 c 2.6 2.2 5.3 3.3 7.8 3.3 c 3 0 5 -1.7 5 -4.3 c 0 -2.5 -1.8 -4 -7.2 -6.4 c -7.7 -3.2 -11.7 -7.8 -11.7 -13.6 c 0 -7.1 6 -12.3 14.4 -12.3 c 4 0 7.5 1 10.7 3 c 0.8 0.6 1.3 1.3 1.5 2.2 c 0.1 1 -0.2 2 -0.8 2.8 l -0.8 1.1 c -0.8 1 -1.7 1.5 -2.7 1.5 c -0.6 0 -1.2 -0.2 -1.9 -0.5 c -2 -1.2 -3.9 -1.8 -5.6 -1.8 c -3.2 0 -5 1.3 -5 3.7 c 0 2.2 2 4 6.4 5.9 c 8.7 3.7 12.4 7.8 12.4 13.9 c 0 3.8 -1.4 7 -4.2 9.4 a 14.6 14.6 0 0 1 -10.401 3.803" />
  <path fill="#686968"
    d="M347.8 29.2c-5.3 0-9 2.4-11 7.3-.2.1-.1.3-.1.3a.4.4 0 0 0 .4.2h21.8v-.5c-2-5-5.6-7.4-11-7.4zm.3 36a22.4 22.4 0 0 1-22.7-22.5c0-6.3 2.2-11.6 6.4-15.9 4.4-4.3 9.8-6.5 16-6.5 6.3 0 11.6 2 15.8 6.2 4.2 4.2 6.3 9.2 6.3 15.1 0 1.8-1.4 3.1-3.4 3.1h-30.3l-.3.1v.6c.4 2.8 1.7 5.2 4 7.3 2.3 2 5 3 8.2 3 4 0 7.2-1.5 9.8-4.5.8-1 1.7-1.4 2.7-1.4.7 0 1.3.2 2 .5l2.6 1.2c1 .5 1.7 1.3 1.8 2.2.2.8 0 1.7-.7 2.3a21.4 21.4 0 0 1-18.2 9.2" />
  <path fill="#686968"
    d="M378.7 65.2c-1.6 0-3-1.3-3-2.8V8.8c0-1.7 1.3-2.9 3-2.9h4.1c1.7 0 3 1.3 3 2.9v53.6c0 1.5-1.4 2.8-3 2.8h-4" />
  <path fill="#686968"
    d="M397.3 65.2c-1.6 0-3-1.3-3-2.8V8.8c0-1.7 1.3-2.9 3-2.9h4.1c1.7 0 3 1.3 3 2.9v53.6c0 1.5-1.3 2.8-3 2.8h-4" />
</svg>
