<svg xmlns="http://www.w3.org/2000/svg" width="32" height="32" fill="none" viewBox="0 0 72 72">
  <path fill="#FF2636"
    d="M62.82 5.91V3.33c0-1.84-1.5-3.33-3.35-3.33h-8.44a3.34 3.34 0 0 0-3.34 3.33v1.85H13.42c-4.39 0-10.92 2.9-10.92 10.9V61.1C2.5 65.49 5.4 72 13.42 72h45.16c4.39 0 10.92-2.9 10.92-10.9V16.09c0-3.5-1.86-8.35-6.68-10.17Z"
  />
  <path fill="#FFFFFE"
    d="M40.3 51.8a2 2 0 0 1 2.52 1.28l1.71 5.24a2 2 0 0 1-1.28 2.52 23.48 23.48 0 0 1-30.7-22.25 23.42 23.42 0 0 1 30.7-22.24 2 2 0 0 1 1.28 2.52l-1.7 5.24a2 2 0 0 1-2.53 1.28 13.94 13.94 0 0 0-18.22 13.2A13.9 13.9 0 0 0 40.3 51.8Zm7.84-23.67 3.7-4.1a2 2 0 0 0-.15-2.82 2 2 0 0 0-2.83.15l-3.7 4.1a2 2 0 0 0 .15 2.82 2 2 0 0 0 2.83-.15Zm3.22 5.83a2 2 0 1 1-1.63-3.65l5.05-2.24a2 2 0 1 1 1.63 3.65l-5.05 2.24Zm.56 2.64h5.53a2 2 0 1 1 0 4h-5.53a2 2 0 1 1 0-4Zm-3.78 12.46a2 2 0 0 0-2.82-.15 2 2 0 0 0-.15 2.82l3.7 4.1a2 2 0 0 0 2.82.14 2 2 0 0 0 .15-2.82l-3.7-4.1Zm3.22-5.83 5.05 2.24a2 2 0 1 1-1.63 3.65l-5.05-2.24a2 2 0 1 1 1.63-3.65Z"
  />
</svg>
