<svg width="48" height="30" viewBox="0 0 48 30" fill="none" xmlns="http://www.w3.org/2000/svg">
<rect width="48" height="30" rx="2" fill="white"/>
<rect x="0.5" y="0.5" width="47" height="29" rx="2.02632" stroke="#C5C5C6"/>
<path fill-rule="evenodd" clip-rule="evenodd" d="M18.0667 19.6712V14.6532V14.6463C18.0667 13.8309 18.0692 13.0148 18.0718 12.196C18.0744 11.3721 18.077 10.5456 18.077 9.71474C18.0736 9.34816 18.1842 9.26862 18.5301 9.26862C20.6327 9.28245 22.733 9.28245 24.8311 9.26862C25.1561 9.26862 25.2876 9.3447 25.2634 9.69053C25.234 10.1339 25.234 10.5786 25.2634 11.022C25.2806 11.3436 25.1631 11.4197 24.8553 11.4197H20.8609C20.5601 11.4162 20.4252 11.4612 20.4563 11.807C20.483 12.0589 20.4754 12.3121 20.4678 12.5655C20.4576 12.9034 20.4474 13.2417 20.5186 13.5776C20.7053 13.5811 20.8921 13.5857 21.0788 13.5903C21.4523 13.5995 21.8258 13.6088 22.1993 13.6088C22.4552 13.6088 22.7111 13.6107 22.967 13.6126C23.4789 13.6165 23.9907 13.6203 24.5025 13.6088C24.793 13.6019 24.8795 13.6814 24.8795 13.9788C24.8518 14.473 24.8518 14.9683 24.8795 15.4624C24.9002 15.8013 24.7619 15.8463 24.4645 15.8463C24.0596 15.8463 23.6555 15.8486 23.2517 15.8509C22.4447 15.8555 21.6388 15.8601 20.8298 15.8463C20.5151 15.8428 20.4321 15.9293 20.4321 16.2474C20.4321 16.6276 20.4302 17.0081 20.4283 17.3889C20.4244 18.1513 20.4206 18.9147 20.4321 19.6781C20.439 19.9859 20.363 20.1 20.0379 20.0827C19.5091 20.055 18.9793 20.055 18.4505 20.0827C18.1151 20.1 18.0667 19.9686 18.0667 19.6712ZM26.9925 19.5674V14.6532C26.9925 13.0093 26.9983 11.3563 27.0098 9.69399C27.0098 9.68317 27.0098 9.67247 27.0097 9.66189C27.009 9.44236 27.0084 9.27553 27.3383 9.27553C27.9113 9.2898 28.485 9.28608 29.059 9.28237C30.155 9.27528 31.252 9.26818 32.3459 9.3862C34.0029 9.54085 35.2522 10.96 35.1956 12.6232C35.2252 14.2949 33.9162 15.6853 32.2456 15.7564C31.4122 15.8152 30.5787 15.8532 29.7418 15.8532C29.4513 15.8567 29.3753 15.9397 29.3753 16.2267V19.6539C29.3787 19.9513 29.3303 20.0827 28.9845 20.0619C28.4744 20.0274 27.9625 20.0274 27.4525 20.0619C27.0305 20.0965 26.9925 19.9132 26.9925 19.5674Z" fill="#FDFDFD"/>
<path d="M46.473 20.0619C45.6361 20.0619 44.7992 20.0412 43.9623 20.0619C43.6583 20.098 43.365 19.9368 43.2326 19.6608C42.4718 18.3674 41.6798 17.0913 40.8948 15.7979C40.6893 15.9858 40.5286 16.2175 40.4244 16.4757C39.7881 17.5408 39.1483 18.6129 38.5328 19.6919C38.4273 19.9444 38.1685 20.0977 37.8964 20.0689C37.1287 20.0412 36.361 20.0689 35.5759 20.0689C35.5413 19.8683 35.69 19.7576 35.7765 19.6297C36.8486 18.0077 37.9206 16.3858 39.0135 14.788C39.1989 14.5868 39.1989 14.2769 39.0135 14.0756C38.0209 12.6681 37.0526 11.2433 36.0774 9.82194C35.9805 9.68707 35.8941 9.54528 35.7523 9.32395C36.7552 9.32395 37.6855 9.32395 38.6123 9.32395C38.8302 9.32395 38.8578 9.54182 38.9581 9.66978C39.6498 10.7695 40.3103 11.8762 41.0054 13.0174C41.6971 11.8692 42.3334 10.773 42.9628 9.66632C43.0681 9.41326 43.3264 9.25881 43.5992 9.28591C44.3842 9.31357 45.1692 9.28591 45.9439 9.28591C46.0234 9.47265 45.8816 9.55565 45.8125 9.66286C44.828 11.12 43.8412 12.5736 42.8522 14.0238C42.7138 14.2243 42.6101 14.3696 42.7968 14.6463C44.0072 16.3754 45.1934 18.1322 46.3865 19.8787C46.4208 19.9132 46.4591 19.9434 46.5007 19.9686L46.473 20.0619Z" fill="#1F2D60"/>
<path d="M9.47635 22.4205C9.17096 22.0129 9.01801 21.5112 9.04407 21.0026C9.07519 20.0827 8.8504 19.0936 9.11669 18.2602C9.38298 17.4267 10.1231 16.7835 10.6522 16.0538L10.6833 16.0123C11.4787 14.9471 11.4787 14.8503 10.7006 13.7886C10.6625 13.7333 10.621 13.6814 10.5795 13.6261C10.0712 12.9344 9.32073 12.2808 9.11669 11.4992C8.86423 10.5101 9.05444 9.40003 9.0579 8.34525C9.06827 8.10491 9.14356 7.87186 9.27577 7.67088C9.33922 7.5166 9.47256 7.40192 9.63459 7.36226C9.79663 7.32261 9.96786 7.36276 10.0954 7.4703C10.3698 7.65243 10.6049 7.88759 10.787 8.16196C12.077 9.89111 13.3704 11.6203 14.65 13.384C15.5353 14.5944 15.5318 15.21 14.65 16.4307C13.36 18.1633 12.0666 19.8959 10.7767 21.6389C10.5414 21.9247 10.2784 22.1865 9.99164 22.4205H9.47635Z" fill="#1F2D60"/>
<path d="M7.17655 22.4136C7.48248 22.0063 7.63549 21.5044 7.60884 20.9957C7.58117 20.0758 7.80251 19.0902 7.53622 18.2533C7.26993 17.4164 6.53331 16.7766 6.00074 16.0469L5.96961 16.0088C5.1742 14.9402 5.1742 14.8434 5.96961 13.7817L6.09065 13.6192C6.59902 12.9275 7.35293 12.2773 7.55351 11.4958C7.80596 10.5032 7.61576 9.39658 7.6123 8.33834C7.59627 8.09644 7.51501 7.86339 7.37714 7.66398C7.31252 7.51078 7.17924 7.39719 7.01775 7.35766C6.85625 7.31814 6.68558 7.35735 6.55752 7.4634C6.28315 7.64552 6.04799 7.88069 5.86586 8.15505C4.57592 9.8842 3.28252 11.6306 2.00295 13.3771C1.12109 14.5875 1.12109 15.2065 2.00295 16.4238C3.27906 18.1703 4.57938 19.9029 5.8624 21.6458C6.09876 21.9318 6.36288 22.1936 6.65089 22.4274L7.17655 22.4136Z" fill="#008AD0"/>
<path fill-rule="evenodd" clip-rule="evenodd" d="M26.9926 9.69055V14.6532C26.9926 15.0046 26.993 15.3558 26.9935 15.7069C26.9953 16.9937 26.997 18.2788 26.9753 19.564C26.9718 19.9167 27.0133 20.0931 27.4352 20.0585C27.9453 20.0239 28.4572 20.0239 28.9673 20.0585C29.3027 20.0793 29.358 19.9478 29.358 19.6504V16.2233C29.3546 15.9362 29.4341 15.8498 29.7246 15.8498C30.5615 15.8394 31.395 15.8117 32.2284 15.7529C33.899 15.6819 35.208 14.2915 35.1783 12.6197C35.235 10.9566 33.9856 9.53741 32.3287 9.38276C31.2348 9.26474 30.1378 9.27184 29.0418 9.27893C28.4678 9.28265 27.8941 9.28636 27.3211 9.27209C26.99 9.2656 26.991 9.43284 26.9924 9.64791C26.9925 9.66193 26.9926 9.67615 26.9926 9.69055ZM31.6336 13.7298C31.2634 13.7908 30.888 13.814 30.5131 13.799C29.9488 13.7973 29.6652 13.7964 29.5227 13.6542C29.3788 13.5105 29.3788 13.2226 29.3788 12.6439V12.5402C29.3788 11.8543 29.3788 11.5119 29.5495 11.3532C29.7197 11.195 30.0595 11.2192 30.7379 11.2675C31.0249 11.2883 31.3154 11.3159 31.599 11.3644C32.1768 11.4545 32.6054 11.9479 32.614 12.5325C32.6225 13.1172 32.2085 13.6229 31.6336 13.7298Z" fill="#1F2D60"/>
<path d="M18.0667 14.6463C18.0667 13.0105 18.0667 11.3713 18.0667 9.73205C18.0667 9.36547 18.167 9.28247 18.5198 9.28593C20.6224 9.30437 22.7227 9.30437 24.8208 9.28593C25.1458 9.28593 25.2773 9.35855 25.253 9.70784C25.2237 10.1512 25.2237 10.596 25.253 11.0393C25.2703 11.3609 25.1528 11.4404 24.845 11.437C23.5135 11.437 22.1821 11.437 20.8506 11.437C20.5498 11.437 20.4149 11.4889 20.446 11.8243C20.4979 12.4122 20.3838 13.0071 20.5083 13.595C21.0685 13.595 21.6288 13.6226 22.189 13.6261C22.9567 13.6261 23.7245 13.6261 24.4922 13.6261C24.7827 13.6261 24.883 13.6987 24.8692 13.9961C24.8415 14.4903 24.8415 14.9856 24.8692 15.4797C24.8899 15.8256 24.7516 15.8671 24.4542 15.8636C23.2438 15.8636 22.0334 15.8636 20.8195 15.8636C20.5048 15.8636 20.4149 15.9466 20.4218 16.2648C20.4218 17.406 20.4218 18.5507 20.4218 19.6954C20.4218 20.0032 20.3526 20.1173 20.0276 20.1C19.4988 20.0723 18.969 20.0723 18.4402 20.1C18.0944 20.1 18.0529 19.9859 18.0563 19.6885C18.0736 17.9939 18.0667 16.3374 18.0667 14.6463Z" fill="#1F2D60"/>
<path d="M30.513 13.799C29.3787 13.799 29.3787 13.799 29.3787 12.6439V12.5332C29.3787 11.1499 29.3787 11.1499 30.7378 11.2606C31.0248 11.2813 31.3153 11.309 31.5989 11.3574C32.1766 11.4475 32.6053 11.9409 32.6139 12.5256C32.6224 13.1102 32.2083 13.6159 31.6335 13.7229C31.2635 13.7862 30.8881 13.8117 30.513 13.799Z" fill="#FDFDFD"/>
</svg>
