<svg width="48" height="30" viewBox="0 0 48 30" fill="none" xmlns="http://www.w3.org/2000/svg">
<rect width="48" height="30" rx="4" fill="#00B14F"/>
<path d="M8.0791 20.588C7.13206 20.051 6.34972 19.2643 5.8177 18.3136C5.26608 17.3258 4.98373 16.2098 5.00072 15.0783C4.98961 13.9669 5.27915 12.8732 5.83992 11.9134C6.40004 10.9536 7.21048 10.1636 8.18367 9.62742C9.18299 9.07224 10.3091 8.78621 11.4516 8.79737C12.7803 8.7431 14.0921 9.10653 15.2031 9.83656V10.8235C14.7045 10.4614 14.1411 10.1975 13.543 10.0457C12.8614 9.86431 12.1574 9.77636 11.4516 9.78428C10.4967 9.77437 9.55619 10.0179 8.72614 10.4901C7.91243 10.9446 7.23467 11.6084 6.76344 12.4128C6.29286 13.2172 6.04515 14.133 6.04646 15.0652C6.0347 16.0179 6.27128 16.9572 6.73271 17.7907C7.17127 18.6048 7.82485 19.283 8.62157 19.7514C9.43658 20.2191 10.3621 20.4605 11.3013 20.4508C11.8829 20.4829 12.4653 20.3989 13.0143 20.2036C13.5627 20.0084 14.0672 19.7058 14.4973 19.3135C14.8986 18.9048 15.2103 18.4172 15.4129 17.8816C15.6156 17.3461 15.7044 16.7742 15.6737 16.2025V15.2809H11.4189V14.3071H16.6083V16.0326C16.6273 17.0321 16.4031 18.0212 15.9548 18.9148C15.5423 19.7088 14.8999 20.3601 14.1117 20.7841C13.2417 21.2383 12.2699 21.4632 11.2882 21.4377C10.1621 21.4455 9.05425 21.1521 8.0791 20.588ZM8.89608 19.2809C8.17714 18.8635 7.58499 18.2579 7.18369 17.5293C6.75298 16.7797 6.52749 15.9297 6.5301 15.0652C6.52095 14.2123 6.74709 13.3733 7.18369 12.6404C7.61309 11.9162 8.22681 11.3186 8.96143 10.9084C9.71436 10.4788 10.566 10.2535 11.432 10.2549C12.1182 10.2518 12.8006 10.3487 13.4581 10.5424C14.0731 10.712 14.6561 10.9814 15.1835 11.3398V12.294L15.1182 12.3463C14.5868 12.0045 14.0077 11.7424 13.3993 11.5686C12.7797 11.3868 12.1372 11.2965 11.4908 11.3006C10.8052 11.2919 10.1294 11.4631 9.53006 11.7973C8.95752 12.1173 8.48301 12.5873 8.15753 13.1568C7.82616 13.7563 7.65688 14.4323 7.66734 15.1175C7.65492 15.8115 7.81178 16.4981 8.12485 17.1175C8.41961 17.6881 8.87385 18.1605 9.43201 18.4769C10.0059 18.8079 10.6588 18.9773 11.3209 18.9671C11.8189 18.9757 12.3137 18.8799 12.7718 18.6861C13.1705 18.5237 13.5195 18.2602 13.7849 17.9214C14.0228 17.6046 14.1509 17.2193 14.1509 16.8234H11.4385V15.8169H15.1901V16.4705C15.2005 17.1092 15.0332 17.7381 14.7064 18.2874C14.3764 18.819 13.9025 19.2471 13.3404 19.5227C12.713 19.8301 12.0202 19.9825 11.3209 19.9671C10.4666 19.9683 9.62809 19.7355 8.89608 19.2939V19.2809ZM17.824 13.6208C18.1639 12.9655 18.6894 12.4245 19.3338 12.0653C20.0299 11.6893 20.8115 11.5002 21.6017 11.5163C22.4501 11.4859 23.2847 11.7313 23.9808 12.2156C23.7461 12.4156 23.5272 12.6341 23.3272 12.8692C23.1095 12.7265 22.8651 12.6287 22.6082 12.5816C22.2965 12.5043 21.9762 12.4648 21.654 12.464C21.0396 12.452 20.4331 12.6031 19.8959 12.9019C19.3887 13.1861 18.973 13.6104 18.6998 14.1241C18.4077 14.6749 18.2613 15.2915 18.275 15.9149V21.1043H17.2881V15.928C17.2757 15.1308 17.46 14.3429 17.824 13.6339V13.6208ZM19.1312 14.3855C19.3691 13.9446 19.7246 13.5781 20.1573 13.3267C20.6122 13.0724 21.1266 12.9438 21.6475 12.9542C22.1357 12.9582 22.6135 13.0912 23.0331 13.3398C22.8736 13.6102 22.7298 13.8895 22.6017 14.1764C22.2991 14.0278 21.9658 13.9517 21.6279 13.9541C21.3762 13.9451 21.1253 13.9899 20.8919 14.0857C20.6586 14.1816 20.4481 14.3261 20.2749 14.5097C19.9187 14.9015 19.7305 15.4181 19.7521 15.9476V21.124H18.7586V15.9476C18.7495 15.4088 18.8756 14.8763 19.1246 14.3986L19.1312 14.3855ZM25.1115 20.7906C24.3873 20.3868 23.7899 19.7894 23.386 19.0652C22.9664 18.3007 22.7527 17.4404 22.7651 16.5685C22.7631 15.6563 22.988 14.7579 23.4187 13.9541C23.8226 13.1891 24.4285 12.5493 25.1703 12.1045C25.9173 11.6616 26.7729 11.4353 27.6408 11.4509C28.4996 11.4467 29.3434 11.6724 30.0852 12.1045C30.8042 12.5152 31.3937 13.1199 31.7845 13.8496C32.1956 14.6121 32.4048 15.4671 32.3924 16.3332V21.1893H31.3924V16.3528C31.4015 15.6678 31.2329 14.9922 30.9022 14.392C30.6029 13.8217 30.1506 13.3463 29.595 13.0195C28.999 12.6782 28.3212 12.5064 27.6343 12.5228C26.9441 12.5129 26.265 12.6962 25.6735 13.0522C25.0892 13.4015 24.616 13.9091 24.3075 14.5162C23.9709 15.173 23.8004 15.9024 23.8108 16.6404C23.7984 17.3361 23.9677 18.0232 24.301 18.6338C24.6154 19.207 25.084 19.6804 25.6539 19.9998C26.2552 20.328 26.9304 20.4968 27.6147 20.49C28.2558 20.5241 28.8892 20.3347 29.4055 19.954V20.941C29.1656 21.1225 28.8957 21.2617 28.6081 21.3527C28.2852 21.4433 27.9506 21.4851 27.6147 21.4769C26.7336 21.4755 25.869 21.2434 25.1049 20.8037L25.1115 20.7906ZM29.2617 14.6012C29.0506 14.3741 28.7931 14.1947 28.5068 14.0752C28.2205 13.9558 27.9121 13.8989 27.6016 13.9084C27.2846 13.8997 26.9689 13.9628 26.6794 14.093C26.3899 14.2231 26.133 14.4169 25.9284 14.66C25.4814 15.2006 25.2487 15.8869 25.2749 16.5881C25.2605 16.9031 25.3108 17.2178 25.4232 17.5124C25.5356 17.807 25.7082 18.0753 25.9284 18.3005C26.1572 18.52 26.4284 18.6911 26.7245 18.8034C27.0212 18.9158 27.3376 18.967 27.6539 18.9541C27.9846 18.9567 28.3127 18.9082 28.6277 18.8103C28.9068 18.7333 29.1676 18.5999 29.3924 18.4181V19.4116C28.8715 19.7828 28.2415 19.9712 27.6016 19.9475C26.9918 19.9604 26.3885 19.8163 25.85 19.5292C25.3507 19.254 24.9389 18.8441 24.6605 18.3462C24.3716 17.8108 24.2252 17.2097 24.2357 16.6012C24.2232 15.9423 24.369 15.2901 24.6605 14.6992C24.9304 14.159 25.3474 13.7059 25.8631 13.3921C26.3853 13.0989 26.9742 12.9449 27.5722 12.9449C28.1709 12.9449 28.7597 13.0989 29.2813 13.3921C29.7761 13.6814 30.1826 14.0993 30.4578 14.6012C30.746 15.1349 30.8924 15.7334 30.8826 16.3397V21.1632H29.8957V16.392C29.9127 16.068 29.8643 15.7439 29.7545 15.4387C29.6447 15.1335 29.4748 14.8532 29.2552 14.6143L29.2617 14.6012ZM35.608 20.5946C34.8714 20.0978 34.3126 19.3788 34.0132 18.5423L34.7191 17.5881C34.8309 18.1202 35.0688 18.6177 35.4119 19.039C35.7688 19.468 36.2152 19.8138 36.7191 20.0521C37.2295 20.2954 37.7883 20.4205 38.353 20.4181C39.0249 20.4276 39.685 20.2438 40.255 19.8887C40.8105 19.5335 41.2615 19.0373 41.5621 18.4508C41.8883 17.8233 42.0543 17.1251 42.0458 16.4182C42.0575 15.7029 41.8869 14.9966 41.549 14.3659C41.2392 13.7765 40.7706 13.2854 40.1961 12.9476C39.604 12.5953 38.9249 12.4164 38.2354 12.4313C37.521 12.4179 36.8178 12.6108 36.2093 12.9868C35.5132 13.4603 34.8975 14.043 34.3858 14.7123C34.1047 15.0456 33.5819 15.7319 32.8107 16.7711V15.294C33.3662 14.4901 33.8564 13.8496 34.2681 13.3332C34.7394 12.81 35.2936 12.3683 35.9086 12.0261C36.6125 11.6093 37.4184 11.3966 38.2354 11.4117C39.0864 11.3973 39.9242 11.6186 40.6569 12.0512C41.3896 12.4838 41.9876 13.1108 42.3856 13.8626C42.7895 14.6493 43 15.5209 43 16.4051C43 17.2893 42.7895 18.1608 42.3856 18.9475C41.9935 19.6877 41.4085 20.3085 40.6929 20.7449C39.9648 21.1867 39.1262 21.4133 38.2746 21.3985C37.323 21.4193 36.389 21.1428 35.6015 20.6076L35.608 20.5946ZM36.7518 19.4965C36.2962 19.2222 35.9073 18.8492 35.6145 18.4051C35.3479 18.0149 35.1779 17.5668 35.1178 17.0979L35.889 16.0456H35.9217V16.1959C35.9191 16.6631 36.0269 17.1244 36.2354 17.5423C36.4289 17.9484 36.7269 18.2957 37.0982 18.5488C37.4622 18.7965 37.8936 18.9265 38.3334 18.9214C38.638 18.9315 38.9406 18.8727 39.219 18.7494C39.4974 18.626 39.7445 18.4413 39.9412 18.209C40.3785 17.7062 40.6118 17.058 40.5948 16.392C40.6151 15.7373 40.3811 15.1002 39.9412 14.6143C39.7334 14.3799 39.4759 14.1945 39.1883 14.0714C38.9001 13.9482 38.5883 13.8903 38.2746 13.9018C37.904 13.8954 37.5367 13.976 37.2027 14.1371C36.8923 14.2947 36.6099 14.5022 36.3661 14.7515C36.1243 15.013 35.7975 15.4051 35.3988 15.8561C35.2616 16.0391 35.157 16.1698 35.0786 16.2613C34.1505 17.3789 33.4185 18.3397 32.8695 19.1567V17.5489L34.0263 16.0129L34.5949 15.2744C35.0812 14.5662 35.6897 13.9509 36.3923 13.4574C36.9589 13.0901 37.6197 12.8948 38.2942 12.8953C38.8916 12.8876 39.4791 13.0436 39.9935 13.3463C40.5 13.6452 40.9118 14.0799 41.183 14.6012C41.4693 15.1545 41.6151 15.7693 41.6079 16.392C41.6151 17.0189 41.4693 17.6379 41.183 18.1959C40.9177 18.7164 40.5157 19.1547 40.0197 19.4639C39.5223 19.7738 38.9465 19.9348 38.3596 19.9279C37.7929 19.9471 37.2321 19.8018 36.7452 19.5096L36.7518 19.4965ZM34.4511 8V12.4705C34.0917 12.8322 33.7557 13.2164 33.4446 13.6208V8H34.4511ZM35.9217 8V11.464C35.559 11.6251 35.225 11.846 34.9348 12.1176V8.01961L35.9217 8Z" fill="white"/>
</svg>
