<svg width="48" height="30" viewBox="0 0 48 30" fill="none" xmlns="http://www.w3.org/2000/svg">
<rect width="48" height="30" rx="4" fill="white"/>
<rect x="0.5" y="0.5" width="47" height="29" rx="3.5" stroke="#C5C5C6"/>
<g opacity="0.01">
<rect x="8" y="5" width="31.8521" height="20.9759" fill="white"/>
</g>
<rect x="19.7261" y="8.65448" width="8.40242" height="13.6645" fill="#FF5F00"/>
<path d="M20.5915 15.4879C20.5894 12.8219 21.8186 10.3029 23.9249 8.65687C20.3466 5.85688 15.2081 6.26472 12.1206 9.59377C9.03304 12.9228 9.03304 18.0554 12.1206 21.3844C15.2081 24.7135 20.3466 25.1213 23.9249 22.3213C21.8179 20.6748 20.5887 18.1548 20.5915 15.4879Z" fill="#EB001B"/>
<path fill-rule="evenodd" clip-rule="evenodd" d="M37.2749 20.6792V21.3752H37.2016V20.6792H37.0449V20.5352H37.4416V20.6792H37.2749ZM38.0449 20.5352V21.3752H37.9616V20.7392L37.8316 21.2852H37.7416L37.6116 20.7392V21.3752H37.5249V20.5352H37.6449L37.7849 21.1352L37.9249 20.5352H38.0449Z" fill="#F79E1B"/>
<path d="M38.046 15.488C38.0459 18.815 36.138 21.8499 33.1325 23.3038C30.127 24.7577 26.5516 24.3753 23.9248 22.319C26.0302 20.6715 27.2594 18.1529 27.2594 15.4868C27.2594 12.8206 26.0302 10.302 23.9248 8.65451C26.5516 6.59823 30.127 6.21582 33.1325 7.66971C36.138 9.1236 38.0459 12.1585 38.046 15.4855V15.488Z" fill="#F79E1B"/>
</svg>
