<svg width="42" height="26" viewBox="0 0 42 26" fill="none" xmlns="http://www.w3.org/2000/svg">
<rect width="41.6" height="26" rx="1.73333" fill="white"/>
<rect width="41.6" height="26" rx="1.73333" fill="white"/>
<path fill-rule="evenodd" clip-rule="evenodd" d="M0.867188 25.9888H40.7339V0.148926H0.867188V25.9888Z" fill="#FFFFFE"/>
<path fill-rule="evenodd" clip-rule="evenodd" d="M0.607422 25.3263H40.9941V21.7993H0.607422V25.3263Z" fill="#F1AD2B"/>
<path fill-rule="evenodd" clip-rule="evenodd" d="M0.607422 4.35362H40.9941V0.82666H0.607422V4.35362Z" fill="#182E66"/>
<path fill-rule="evenodd" clip-rule="evenodd" d="M20.4663 8.23932L18.435 17.9337H15.978L18.0095 8.23932H20.4663ZM30.8027 14.4991L32.0962 10.8584L32.8402 14.4991H30.8027ZM33.5465 17.9337H35.8182L33.8333 8.23932H31.7377C31.2652 8.23932 30.8673 8.51892 30.691 8.94999L27.0043 17.9337H29.5847L30.0969 16.486H33.2486L33.5465 17.9337ZM27.1314 14.7687C27.1422 12.2103 23.6667 12.0685 23.6898 10.9252C23.6974 10.5778 24.0218 10.208 24.7317 10.1134C25.0835 10.067 26.0543 10.0295 27.1549 10.5471L27.5853 8.49045C26.9939 8.27227 26.2333 8.06201 25.2871 8.06201C22.8581 8.06201 21.1494 9.37897 21.1358 11.2664C21.1203 12.6621 22.3565 13.4404 23.2858 13.9052C24.2439 14.3802 24.565 14.685 24.5604 15.1095C24.5538 15.7599 23.7961 16.048 23.0911 16.0587C21.855 16.0785 21.1387 15.7179 20.5677 15.446L20.1217 17.5714C20.6967 17.8399 21.7563 18.0739 22.8532 18.0858C25.4353 18.0858 27.1239 16.7843 27.1314 14.7687V14.7687ZM16.9563 8.23932L12.9753 17.9337H10.3785L8.41927 10.1969C8.3006 9.72132 8.19705 9.54629 7.83585 9.34545C7.24505 9.01763 6.26961 8.71128 5.41211 8.5208L5.47006 8.23932H9.6509C10.1836 8.23932 10.6625 8.60106 10.7843 9.22732L11.8192 14.8375L14.3751 8.23932H16.9563V8.23932Z" fill="#182E66"/>
<rect x="0.433333" y="0.433333" width="40.7333" height="25.1333" rx="1.3" stroke="#C5C5C6" stroke-width="0.866667"/>
</svg>
