<svg xmlns="http://www.w3.org/2000/svg" viewBox="0 0 128 128"><g fill="none" transform="translate(2)"><path fill="#F0F1F1" d="M36.7 112.7l-14.06.13c-1.8.02-3.65.04-5.35.66s-3.24 1.96-3.6 3.73c-.12.65-.11 1.4-.56 1.89a2.73 2.73 0 0 1-1.03.6c-1.46.58-3.02 1.59-3.16 3.15-.14 1.51 1.23 2.83 2.71 3.19 1.48.35 3.02 0 4.51-.33a177.59 177.59 0 0 1 16.99-2.93c2.04-.25 4.12-.47 6.17-.27 1.92.17 3.8.7 5.66 1.19a145.5 145.5 0 0 0 21.49 3.93c2.99.31 6.01.54 9 .12 5.18-.73 9.88-3.35 14.44-5.91.64-.36 1.37-.93 1.2-1.64a1.61 1.61 0 0 0-.55-.77c-3.25-2.9-7.77-3.94-12.12-4.12-4.35-.18-8.7.38-13.05.2-1.65-.07-3.34-.26-4.73-1.12-1.12-.68-1.96-1.74-3.09-2.42-1.4-.84-3.08-1-4.7-1.13-6.23-.52-6.75 1.1-16.15 1.87"/><path fill="#414244" d="M2.08 74.67l17.86-8.34 1.11 2.38L3.2 77.04z"/><path fill="#414244" d="M.38 73.47l1.47-.68a.4.4 0 0 1 .52.19l2.3 4.93a.4.4 0 0 1-.19.52l-1.47.68a.4.4 0 0 1-.52-.19L.2 74a.4.4 0 0 1 .2-.52z"/><path fill="#57585A" d="M29.18 66.98a7295.65 7295.65 0 0 0-2.63-5.64c-.1-.2-.37-.2-.55-.11l-8 3.73c-2.94 1.37-6.08 2.56-8.9 4.16-1.43.8-.62 1.99-.1 3.1.57 1.24 1.08 3.58 2.88 3.03.78-.23 1.53-.7 2.26-1.05l5.47-2.55 9.33-4.35c.18-.05.3-.18.24-.32z"/><path fill="#C5C5C6" d="M44.26 50.29l10.2-4.76a5.57 5.57 0 0 1 7.4 2.7 5.57 5.57 0 0 1-2.67 7.39L49 60.38l-4.7-10.1h-.03z"/><path fill="#6D6E71" d="M55.77 57.32l-4.7-10.1c-.14-.3-.71-.14-.92-.04L32.3 55.25c-4.67 2.1-9.2 4.54-13.84 6.7L16 63.12c-.55.28-1.25.5-1.52 1.1-.48 1.03.88 2.94 1.3 3.81.77 1.68 1.53 3.38 2.35 5.04.63 1.31 1.63 1.28 2.86.77 6.01-2.5 11.9-5.24 17.83-7.94 5.56-2.53 10.98-5.37 16.47-8.08.31-.1.58-.3.5-.49z"/><path fill="#414244" d="M59.47 52.74a7756.44 7756.44 0 0 0-3.25-6.98c-.22-.48-.4-1.12-.76-1.53-.65-.74-1.55-.49-2.34-.2a39.03 39.03 0 0 0-5.22 2.25c-1.76.93-3.47 1.72-5.3 2.66-1.84.95-.94 2.35-.28 3.79l3.3 7.08c.59 1.27 1.06 3.3 2.87 2.87.65-.15 1.28-.53 1.88-.81l3.72-1.74 5.86-2.74.04-.02.04-.02h.01l.04-.03c1.64-1.12.01-3.27-.6-4.58z"/><ellipse cx="33.83" cy="67.14" fill="#57585A" rx="4.4" ry="4.41"/><path fill="#57585A" d="M31.48 70.41h4.7v7.92h-4.7z"/><path fill="#414244" d="M38.1 80.9l-.76-4.3h.21c.18 0 .33-.15.33-.33v-2.01a.33.33 0 0 0-.33-.33h-7.41a.33.33 0 0 0-.33.33v2.01c0 .18.15.33.33.33h.06l-6.59 36.2-.98 5.4c-.03.18.2.43.44.57a.44.44 0 0 0 .23.1h2.67a.15.15 0 0 0 .16-.12l5.84-32.11v31.86c0 .13.4.18.7.14h2.49c.08 0 .5-.02.5-.17V85.95l4.9 26.88.98 5.4a.8.8 0 0 0 .67.66h2.67c.07 0 .1-.11.1-.17L38.1 80.91z"/><ellipse cx="33.83" cy="70.41" fill="#6D6E71" rx="2.35" ry="2.35"/><path fill="#FFD4D7" d="M57.7 62.47s1.79 3.71 2.47 4.52c.68.8 2.23 3.47.68 4.94-1.55 1.48-2.7 2.22-2.35 3.3a22.16 22.16 0 0 0 1.76 3.33l-4.74.84s-.65-3.86-2.8-6.09c-2.13-2.22-4.27-5.77-3.13-8.65 1.15-2.87 6.57-3.66 8.1-2.2zm14.28 30.89l3.11 16.83-4.28.7-4.52-14.88z"/><path fill="#027CFF" d="M50.8 79.88s-3.2 2.96-3.82 5.14c-.63 2.18-2.03 7.33-1.4 12.31.62 4.99 3.89 22.76 3.58 24.16a18 18 0 0 0 9.03-.78c4.67-1.71 7.87-3.74 8.96-6.78 1.09-3.04 2.26-3.9 2.26-3.9s-3.82-7.85-3.52-11.76c0 0 7.25-2.03 7.87-4.2 0 0-4.83-12-7.71-13.88-2.89-1.87-7.55-4.96-15.26-.3z"/><path fill="#660F16" d="M47.54 59.45A7.55 7.55 0 0 0 43 66.2c-.23 3.94 1.4 5.43 1 7.42-.41 1.98-3.17 2.71-3.26 6.15-.1 3.45 1.67 4.08.99 5.8-.68 1.73-3.08 6.62 4.4 7.38 7.46.77 13.75-2.76 14.62-4.03.86-1.26 2.53-4.67 0-7.47-2.54-2.8-3.4-4.2-2.54-5.2.86-1 1.76-3.54-.1-4.94-1.85-1.4-3.2-2.72-3.25-3.95-.05-1.22.68-1.44 1.27-1.17s4.43-1.97 3.9-3.43c-.55-1.46-2.4-4.23-5.35-4.45a15.2 15.2 0 0 0-7.15 1.14z" style="mix-blend-mode:multiply"/><path fill="#CC1E2B" d="M50.36 110.74l15.92-3.5s.08 2.72.62 3.03c.55.31 11.92-2.5 15.2-2.65 3.26-.15 8.71-.34 9.57 2.67.86 3.02-8.3 11.74-22.2 12.91-13.58 1.15-18.35-.42-19.39-6.77-.3-1.89.28-5.7.28-5.7z" style="mix-blend-mode:multiply"/><path fill="#F0F1F1" d="M12.21 13.4A11.21 11.21 0 0 1 14.5.73a.36.36 0 0 0-.22-.63A11.14 11.14 0 0 0 4.2 4.83a11.15 11.15 0 0 0-.95 11.1 11.05 11.05 0 0 0 12.85 5.88A11.65 11.65 0 0 0 19.72 20a.36.36 0 0 0-.13-.65 10.89 10.89 0 0 1-7.38-5.96z"/><path fill="#F1F2F2" d="M20.47 35.36a3.2 3.2 0 1 1 5.81-2.67c-.25-1.47.53-3.14 1.94-3.6 1.42-.45 3.2.75 3.02 2.23 1.3-1.38 2.86-2.75 4.74-2.85 1.89-.1 3.9 1.8 3.17 3.54 1.4-.96 3.64-.1 4.06 1.53.97-1.3 3.4-.94 3.95.6a12.95 12.95 0 0 1 7.82 1.23c.34.13.6.38.76.7.06.32 0 .65-.17.93a5.76 5.76 0 0 1-6.26 2.94c-.78-.18-1.52-.53-2.31-.58-.91-.05-1.8.28-2.66.54a16.08 16.08 0 0 1-8.27.2 9.24 9.24 0 0 1-8.07.64 6.46 6.46 0 0 0-1.47-.5 6.04 6.04 0 0 0-1.42.06 11.6 11.6 0 0 1-9.13-3.23c-.3-.81.5-1.69 1.37-1.79.86-.1 1.68.31 2.44.71m44.7-21.86c-.52-.82.2-2.15 1-2.37.8-.23 1.63.16 2.45.14 1.94-.07 3.38-2.33 4.9-3.95 1.53-1.62 4.12-2.5 5.13-.34.07-2.8 1.23-5.7 3.19-6.82 1.95-1.1 4.59.18 5.1 2.87 2.14-2.87 6.45-1.44 7.22 2.4 1.77-1.33 4.31.75 4.18 3.41 2.04-1.78 4.46.93 6.7 2.08 4.05 2.07 8.87-1.2 12.96.7.5.2.93.56 1.2 1.03.94 1.7-.8 4.06-2.4 4.2-1.61.14-3.2-.82-4.8-.48-2.63.55-5.19 4.42-7.45 2.63-.7-.55-1.2-1.58-2.02-1.67-.59-.06-1.13.42-1.66.8a5.39 5.39 0 0 1-6.1.2c-.67-.43-1.34-1.03-2.09-.96-.66.06-1.23.63-1.83 1.04a4.12 4.12 0 0 1-4.82-.09c-.53-.39-1.03-.92-1.63-1.05-.95-.21-1.85.6-2.76 1.03-1.62.78-3.38.43-5.06.07-4.12-.88-12.03 3.49-13.42-1.97-.48-1.9 1.24-2.76 1.95-3.05m52.4 37.81a2.49 2.49 0 0 0-1-3.02 2.33 2.33 0 0 0-3 .78c.24-1.07-.24-2.34-1.22-2.74-.99-.4-2.3.4-2.26 1.5-.86-1.07-1.9-2.15-3.24-2.31-1.33-.17-2.85 1.13-2.41 2.45-.96-.77-2.59-.25-2.96.94-.63-1.01-2.39-.85-2.84.25a8.98 8.98 0 0 0-5.63.55.98.98 0 0 0-.56.48.95.95 0 0 0 .07.69 4.08 4.08 0 0 0 4.31 2.45c.55-.1 1.1-.32 1.68-.32.64 0 1.25.3 1.86.52 1.88.7 3.9.89 5.88.53a6.4 6.4 0 0 0 5.7.85 4.47 4.47 0 0 1 1.07-.3c.34 0 .68.03 1 .1a8.12 8.12 0 0 0 6.66-1.94c.25-.58-.29-1.26-.9-1.37-.6-.12-1.2.14-1.76.4"/><path fill="#00BFA2" d="M42.4 7.03a1.2 1.2 0 0 1-.18 0l-.35-.04a.28.28 0 0 1 .06-.57l.27.03.13-.15.2-.23a.28.28 0 0 1 .4-.03.28.28 0 0 1 .03.4l-.2.23-.04.06a.28.28 0 0 1 0 .11.28.28 0 0 1-.33.19zm-6.13 13.52h-.03c-.63-.08-1-.42-1-.94l.03-.24a.28.28 0 1 1 .55.11.77.77 0 0 0-.02.13c0 .1 0 .31.5.37a.28.28 0 0 1-.03.57zm1.27-.14a.28.28 0 0 1-.27-.22.28.28 0 0 1 .2-.35l1.26-.3a.28.28 0 1 1 .14.55l-1.26.3a.27.27 0 0 1-.07.02zm2.51-.6a.28.28 0 0 1-.06-.56l1.25-.3a.27.27 0 0 1 .34.21.28.28 0 0 1-.2.34l-1.26.3a.27.27 0 0 1-.07 0zm-4.03-1.3a.29.29 0 0 1-.11-.02.28.28 0 0 1-.15-.38l.53-1.18a.28.28 0 1 1 .51.23l-.52 1.18a.28.28 0 0 1-.26.17zm1.04-2.35a.29.29 0 0 1-.11-.03.28.28 0 0 1-.14-.37l.48-1.1c0-.03.03-.06.04-.09a.28.28 0 1 1 .52.24l-.04.08-.48 1.1a.28.28 0 0 1-.27.17zm1.1-2.34a.27.27 0 0 1-.09-.02.28.28 0 0 1-.17-.37c.02-.07.05-.15.06-.24a.38.38 0 0 0 0-.1 1.08 1.08 0 0 0-.25-.54l-.03-.05a.28.28 0 0 1 .08-.4.27.27 0 0 1 .4.08l.02.05c.2.25.33.55.35.87 0 .07 0 .15-.02.22l-.09.31a.28.28 0 0 1-.26.19zm-.92-2.28a.28.28 0 0 1-.24-.14l-.68-1.1a.28.28 0 0 1 .48-.3l.68 1.1a.28.28 0 0 1-.1.4.27.27 0 0 1-.14.04zm-1.35-2.2a.28.28 0 0 1-.25-.14l-.67-1.1a.28.28 0 0 1 .49-.3l-.25.15.25-.14.67 1.1a.28.28 0 0 1-.1.39.27.27 0 0 1-.14.04zM34.6 7.1a.28.28 0 0 1-.28-.27v-.08c0-.26.12-.86 1.14-.96a.28.28 0 0 1 .06.56c-.28.03-.63.12-.63.4a.17.17 0 0 0 0 .04.28.28 0 0 1-.27.3l-.02.01zm6-.25h-.02l-.37-.04a46.26 46.26 0 0 1-.92-.1.28.28 0 0 1 .07-.55l.91.1.36.03a.28.28 0 0 1-.02.57v-.01zm-2.55-.28h-.04l-1.27-.13a.28.28 0 0 1-.26-.3.28.28 0 0 1 .3-.27l1.3.14a.28.28 0 0 1-.03.56zm5.53 12.87a.28.28 0 0 1-.2-.07 2.83 2.83 0 0 1-.21-.23l-.03-.03a1.98 1.98 0 0 1-.12-.1l-.39.12a.29.29 0 1 1-.18-.55c.21-.08.44-.14.67-.18a.27.27 0 0 1 .24.1c.03.03.05.06.06.1l.09.07a.7.7 0 0 1 .08.08l.18.18a.28.28 0 0 1 .02.4.3.3 0 0 1-.21.11zm5.34 4.32h-.13a1.42 1.42 0 0 1-.41-.09.28.28 0 0 1 .2-.53c.08.03.17.05.25.06a.78.78 0 0 0 .65-.2.28.28 0 1 1 .42.38c-.26.26-.61.4-.98.38zm-1.46-.86a.27.27 0 0 1-.2-.08l-.96-.86a.28.28 0 0 1 .38-.42l.97.87a.28.28 0 0 1 .02.4.27.27 0 0 1-.21.09zm2.55-.66H50a.28.28 0 0 1-.25-.31c.04-.38.07-.8.1-1.29a.28.28 0 1 1 .57.04l-.1 1.3a.28.28 0 0 1-.29.26zm-4.49-1.08a.27.27 0 0 1-.19-.07l-.96-.87a.28.28 0 0 1 .37-.42l.97.87a.28.28 0 0 1-.2.5h.01zm4.67-1.51h-.01a.28.28 0 0 1-.28-.3c.03-.42.05-.87.09-1.3a.28.28 0 0 1 .3-.28.28.28 0 0 1 .26.3l-.08 1.3a.28.28 0 0 1-.27.28zm.16-2.6h-.02a.28.28 0 0 1-.28-.3c.02-.23.05-.42.08-.6a1 1 0 0 1 .56-.75.28.28 0 1 1 .28.5.46.46 0 0 0-.3.37 4.82 4.82 0 0 0-.06.52.28.28 0 0 1-.25.26h-.01zm1.62-1.77a.28.28 0 0 1-.24-.14.28.28 0 0 1 .1-.39l1.12-.65a.27.27 0 0 1 .4.1.28.28 0 0 1-.11.39l-1.13.65a.29.29 0 0 1-.13.04zm2.25-1.3a.28.28 0 0 1-.14-.53l1.12-.65a.28.28 0 1 1 .28.49l-1.13.65a.3.3 0 0 1-.12.04h-.01zm2.24-1.31a.28.28 0 0 1-.18-.5.44.44 0 0 0 .18-.3.48.48 0 0 0-.24-.33.28.28 0 0 1-.07-.4.28.28 0 0 1 .4-.07c.28.18.46.48.48.8a.94.94 0 0 1-.38.73.27.27 0 0 1-.18.07zm-1.25-1.63a.27.27 0 0 1-.1-.03l-1.2-.49a.28.28 0 0 1-.17-.37.28.28 0 0 1 .37-.16l1.21.5a.28.28 0 0 1-.1.55zm-2.41-.97a.29.29 0 0 1-.1-.02l-.8-.32a6.28 6.28 0 0 0-.4-.16.3.3 0 0 1 .2-.55l.42.17.78.32a.28.28 0 0 1-.1.55zM50.4 9.1a.27.27 0 0 1-.13-.03l-.17-.1a1.18 1.18 0 0 1-.55-.93l-.03-.16v-.06a.28.28 0 0 1 .55-.12v.06c0 .06.02.12.03.17.06.33.1.44.28.55l.14.08a.28.28 0 0 1-.13.55zm-.9-2.33a.28.28 0 0 1-.27-.22l-.27-1.27a.28.28 0 0 1 .55-.12l.27 1.27a.28.28 0 0 1-.26.34h-.01zm-5.92-1.25a.29.29 0 0 1-.29-.26.28.28 0 0 1 .07-.2l.85-1a.28.28 0 1 1 .43.37l-.84 1a.28.28 0 0 1-.21.1h-.01zm5.38-1.29a.28.28 0 0 1-.27-.23l-.28-1.26a.28.28 0 0 1 .22-.34.27.27 0 0 1 .34.21l.27 1.28a.28.28 0 0 1-.22.33h-.06zm-3.7-.69a.28.28 0 0 1-.18-.07.28.28 0 0 1-.03-.4l.53-.6.27-.35.03-.04a.28.28 0 1 1 .44.36l-.03.03-.3.36-.51.6a.28.28 0 0 1-.2.11h-.01zm3-1.78a.27.27 0 0 1-.18-.06.78.78 0 0 0-.5-.16c-.15 0-.3.03-.44.1a.28.28 0 1 1-.23-.53c.21-.1.44-.14.67-.14.31 0 .62.1.86.29a.28.28 0 0 1 .04.4.28.28 0 0 1-.21.1h-.01zM69.19 21.8a.28.28 0 0 1-.28-.2.28.28 0 0 1 .18-.36l.22-.07.04-.17.07-.24a.28.28 0 1 1 .55.15l-.07.24a.69.69 0 0 1-.02.07c.02.03.03.07.03.1.03.24-.18.31-.34.36l-.3.1a.35.35 0 0 1-.08.02zm.63-.34zm-.46 13.49a.82.82 0 0 1-.82-.69.28.28 0 0 1 .55-.14c.05.22.14.26.27.26a.84.84 0 0 0 .26-.05.29.29 0 1 1 .18.55 1.45 1.45 0 0 1-.44.07zm1.33-.65a.3.3 0 0 1-.28-.32.28.28 0 0 1 .1-.2l.9-.7a.28.28 0 1 1 .36.44l-.9.71a.27.27 0 0 1-.18.07zm-1.94-.97a.28.28 0 0 1-.27-.27l-.02-1.15a.28.28 0 0 1 .55 0c0 .38 0 .76.02 1.14a.28.28 0 0 1-.27.3v-.02zm3.75-.46a.28.28 0 0 1-.23-.11.28.28 0 0 1 .05-.4l.9-.71a.29.29 0 1 1 .36.44l-.9.72a.27.27 0 0 1-.18.06zm-3.78-1.84a.28.28 0 0 1-.27-.27c0-.36 0-.72-.02-1.07v-.09a.28.28 0 1 1 .57 0v.08l.01 1.07a.28.28 0 0 1-.27.29h-.02zm0-2.3a.28.28 0 0 1-.27-.25 1.2 1.2 0 0 0-.04-.22c-.04-.18-.18-.28-.42-.42l-.05-.03a.28.28 0 0 1 .3-.48l.05.03c.32.15.57.43.68.77l.04.3a.28.28 0 0 1-.26.3h-.03zm-1.6-1.5a.27.27 0 0 1-.15-.06l-.96-.63a.28.28 0 0 1-.08-.4.28.28 0 0 1 .4-.08l.95.64a.28.28 0 0 1 .08.4.28.28 0 0 1-.23.12zm-1.92-1.28a.3.3 0 0 1-.16-.05l-.94-.62a.28.28 0 0 1-.08-.4.28.28 0 0 1 .39-.08l.95.64c.13.08.17.26.08.4a.28.28 0 0 1-.23.1zm-1.86-1.32a.28.28 0 0 1-.25-.15.8.8 0 0 1-.11-.4c0-.34.22-.66.65-.9a.28.28 0 1 1 .29.48c-.23.14-.37.3-.37.42a.28.28 0 0 0 .03.12.28.28 0 0 1-.1.4.27.27 0 0 1-.14.03zm1.5-1.38a.28.28 0 1 1-.1-.55c.32-.11.65-.23 1.1-.37a.29.29 0 1 1 .18.55l-1.09.36a.27.27 0 0 1-.09.03v-.02zm2.17-.72a.28.28 0 0 1-.27-.2.28.28 0 0 1 .18-.36l.77-.27.31-.11a.29.29 0 1 1 .2.55l-.32.1-.78.27a.27.27 0 0 1-.08.02zm7.27 8.95a.27.27 0 0 1-.21-.1.3.3 0 0 1-.09-.21.3.3 0 0 1 .09-.22c.15-.16.3-.3.48-.42a.26.26 0 0 1 .27-.02c.04.01.06.03.09.06l.1.03.1.04.2.08a.3.3 0 0 1 .2.23.32.32 0 0 1-.09.3.27.27 0 0 1-.28.06 2.45 2.45 0 0 1-.28-.1h-.03l-.11-.04c-.1.07-.18.16-.26.24a.26.26 0 0 1-.18.07zm6.5 1.39a.28.28 0 0 1-.02-.57.73.73 0 0 0 .21-.05.68.68 0 0 0 .44-.38.29.29 0 1 1 .55.17 1.2 1.2 0 0 1-.77.74 1.33 1.33 0 0 1-.38.09h-.03zm-1.12-.28a.27.27 0 0 1-.08 0l-1.1-.34a.29.29 0 0 1 .17-.55l1.1.34a.28.28 0 0 1-.09.55zm-2.22-.68a.27.27 0 0 1-.08 0l-1.1-.34a.29.29 0 0 1 .17-.55l1.1.34a.28.28 0 0 1 .19.36.28.28 0 0 1-.28.2v-.01zm4.04-.8a.28.28 0 0 1-.28-.2 34.6 34.6 0 0 0-.4-1.08.28.28 0 0 1 .54-.2l.4 1.1a.28.28 0 0 1-.18.36.27.27 0 0 1-.08.03v-.02zm-.83-2.17a.28.28 0 0 1-.27-.18 54.44 54.44 0 0 1-.42-1.1.28.28 0 0 1 .53-.2l.42 1.08a.28.28 0 0 1-.16.36.33.33 0 0 1-.09.05v-.01zm-.84-2.16a.28.28 0 0 1-.27-.19 4.95 4.95 0 0 1-.16-.5.95.95 0 0 1 .17-.86.28.28 0 0 1 .4-.06.28.28 0 0 1 .07.4.41.41 0 0 0-.11.24 4.65 4.65 0 0 0 .16.58.28.28 0 0 1-.17.37.23.23 0 0 1-.08.03l-.01-.01zm.65-2.04a.27.27 0 0 1-.16-.06.28.28 0 0 1-.07-.4l.67-.94a.28.28 0 0 1 .4-.07.28.28 0 0 1 .06.4l-.64.96a.28.28 0 0 1-.25.12v-.01zm1.34-1.9a.27.27 0 0 1-.17-.05.28.28 0 0 1-.07-.4l.67-.94a.28.28 0 0 1 .4-.08.28.28 0 0 1 .06.4l-.66.95a.28.28 0 0 1-.21.14l-.02-.02zm1.32-1.9a.26.26 0 0 1-.12-.02.28.28 0 0 1-.14-.38.47.47 0 0 0 .06-.2c0-.16-.2-.22-.32-.25a.28.28 0 0 1 .1-.54.84.84 0 0 1 .78.8c0 .15-.04.3-.1.44a.28.28 0 0 1-.25.17v-.02zm-6.24-.6h-.18a1.08 1.08 0 0 1-.82-.55l-.09-.12-.03-.05a.28.28 0 0 1 .45-.34l.04.05.09.13c.17.23.23.3.41.33h.15a.28.28 0 0 1-.03.55zm1.15-.06a.28.28 0 0 1-.02-.57l.4-.02.76-.04a.28.28 0 0 1 .03.57l-.76.03c-.14 0-.28.02-.39.03h-.02zm2.31-.13a.28.28 0 0 1-.01-.57l1.16-.05a.27.27 0 0 1 .3.27.29.29 0 0 1-.28.3c-.33 0-.69.02-1.15.05h-.02zm-10.32-.16a.36.36 0 0 1-.08 0 .28.28 0 0 1-.2-.35l.32-1.12a.28.28 0 1 1 .55.15l-.31 1.12a.28.28 0 0 1-.27.2h-.01zm5.26-1.2a.28.28 0 0 1-.22-.12l-.7-.93a.28.28 0 0 1 .45-.34l.7.93a.28.28 0 0 1-.06.4.3.3 0 0 1-.16.06zm-4.64-1.03a.27.27 0 0 1-.08 0 .28.28 0 0 1-.2-.35l.2-.7.1-.37v-.04a.28.28 0 1 1 .55.13v.04l-.1.4-.2.69a.28.28 0 0 1-.26.2h-.01zm3.25-.83a.28.28 0 0 1-.23-.11l-.7-.93a.28.28 0 0 1 .46-.34l.7.94a.28.28 0 0 1-.22.46v-.02zm-2.53-1.37a.29.29 0 0 1-.19-.07.28.28 0 0 1-.02-.4 1.43 1.43 0 0 1 1.06-.48c.09 0 .18.01.27.04a.28.28 0 0 1-.15.55.53.53 0 0 0-.13-.02.86.86 0 0 0-.62.3.27.27 0 0 1-.21.1l-.01-.02zm36.83 11.24a1.2 1.2 0 0 1-.17-.01l-.35-.04a.28.28 0 0 1-.26-.32.28.28 0 0 1 .32-.25l.27.03.11-.13.22-.25a.28.28 0 1 1 .43.37l-.21.25-.04.04a.28.28 0 0 1 0 .11.28.28 0 0 1-.32.2zm-6.12 13.52h-.03c-.64-.08-1-.42-1-.94 0-.07 0-.15.02-.23a.28.28 0 0 1 .34-.23.28.28 0 0 1 .22.33.77.77 0 0 0-.02.14c0 .09 0 .3.5.36a.28.28 0 0 1-.03.57zm1.27-.14a.28.28 0 1 1-.06-.55l1.25-.3a.27.27 0 0 1 .34.2.28.28 0 0 1-.2.35l-1.26.3h-.07zm2.5-.6a.28.28 0 1 1-.06-.56l1.26-.3a.28.28 0 1 1 .13.55l-1.26.3a.27.27 0 0 1-.06 0zm-4.02-1.3a.29.29 0 0 1-.11-.02.28.28 0 0 1-.15-.37l.52-1.18a.28.28 0 0 1 .38-.15.28.28 0 0 1 .14.38l-.52 1.18a.28.28 0 0 1-.26.17zm1.05-2.35a.29.29 0 0 1-.12-.03.28.28 0 0 1-.14-.37l.49-1.1c0-.03.02-.06.04-.09a.28.28 0 1 1 .5.25l-.02.07-.5 1.1a.28.28 0 0 1-.25.17zm1.08-2.34a.28.28 0 0 1-.27-.38l.07-.24a.38.38 0 0 0 0-.1 1.07 1.07 0 0 0-.25-.55l-.04-.05a.28.28 0 0 1 .47-.32l.04.05c.2.25.32.55.34.87 0 .07 0 .15-.02.22l-.09.31a.28.28 0 0 1-.25.19zm-.92-2.3a.28.28 0 0 1-.24-.13l-.67-1.1a.28.28 0 0 1 .48-.3l.68 1.1a.28.28 0 0 1-.25.44zm-1.35-2.19a.3.3 0 0 1-.24-.13l-.67-1.1a.28.28 0 0 1 .09-.4.27.27 0 0 1 .39.1l.67 1.1a.28.28 0 0 1-.1.38.27.27 0 0 1-.14.05zm-1.27-2.22a.28.28 0 0 1-.28-.28v-.08c0-.25.12-.85 1.14-.96a.28.28 0 0 1 .06.57c-.28.03-.63.12-.63.4a.16.16 0 0 0 0 .03.28.28 0 0 1-.26.3l-.03.02zm6-.26h-.02l-.37-.04-.92-.1a.28.28 0 0 1 .07-.56l.9.1.37.03a.28.28 0 0 1-.03.57zm-2.56-.27h-.03a53.48 53.48 0 0 0-1.27-.14.28.28 0 0 1 .05-.56l1.28.13a.28.28 0 0 1-.03.57zm5.54 12.87a.28.28 0 0 1-.2-.07 2.43 2.43 0 0 1-.22-.23l-.03-.02a1.91 1.91 0 0 1-.11-.1l-.4.11a.29.29 0 1 1-.18-.55c.22-.08.45-.14.67-.17a.27.27 0 0 1 .25.1.28.28 0 0 1 .06.09l.09.08.08.08.18.18a.28.28 0 0 1 .02.4.3.3 0 0 1-.21.1zm5.34 4.33h-.13a1.43 1.43 0 0 1-.42-.1.28.28 0 0 1 .2-.52c.09.03.17.05.26.05h.09a.72.72 0 0 0 .55-.2.28.28 0 1 1 .42.38 1.28 1.28 0 0 1-.97.39zm-1.46-.87a.27.27 0 0 1-.2-.07l-.96-.87a.28.28 0 0 1 .38-.42l.97.86a.28.28 0 0 1-.2.5zm2.55-.66h-.03a.28.28 0 0 1-.26-.3c.04-.39.08-.8.11-1.3a.28.28 0 1 1 .57.05c-.03.5-.07.9-.11 1.3a.28.28 0 0 1-.28.27V42zm-4.49-1.08a.27.27 0 0 1-.19-.08l-.96-.86a.28.28 0 0 1 .37-.43l.97.87a.28.28 0 0 1-.19.5zM116 39.4h-.02a.27.27 0 0 1-.27-.3l.08-1.3a.28.28 0 1 1 .57.04l-.09 1.3c0 .14-.11.26-.26.27H116zm.16-2.6h-.02a.28.28 0 0 1-.26-.3 5.77 5.77 0 0 1 .07-.58 1 1 0 0 1 .55-.77.28.28 0 1 1 .28.5.46.46 0 0 0-.3.37 4.87 4.87 0 0 0-.06.52.28.28 0 0 1-.25.27h-.01zm1.62-1.76a.28.28 0 0 1-.25-.15.28.28 0 0 1 .1-.38l1.13-.65a.27.27 0 0 1 .39.1.28.28 0 0 1-.1.39l-1.13.65a.27.27 0 0 1-.14.04zm2.25-1.3a.28.28 0 0 1-.25-.15.28.28 0 0 1 .1-.39l1.13-.65a.28.28 0 1 1 .27.5l-1.12.64a.27.27 0 0 1-.12.05h-.01zm2.24-1.32a.28.28 0 0 1-.18-.5.44.44 0 0 0 .18-.27.48.48 0 0 0-.24-.34.28.28 0 0 1 .33-.47 1 1 0 0 1 .48.8.94.94 0 0 1-.39.73.27.27 0 0 1-.17.06zm-1.25-1.64a.27.27 0 0 1-.11-.03l-1.2-.49a.28.28 0 0 1 .21-.53 51.9 51.9 0 0 1 1.21.5.28.28 0 0 1-.1.55zm-2.41-.95a.29.29 0 0 1-.1-.02l-.8-.32a9.4 9.4 0 0 0-.4-.16.29.29 0 0 1-.03-.53.27.27 0 0 1 .22 0l.42.16.8.32a.28.28 0 0 1-.11.55zm-2.41-.97a.27.27 0 0 1-.13-.03l-.17-.1a1.18 1.18 0 0 1-.55-.93l-.03-.16v-.06a.28.28 0 0 1 .55-.12v.06l.04.18c.06.32.1.44.28.55l.14.08a.28.28 0 0 1-.14.55v-.02zm-.89-2.33a.29.29 0 0 1-.27-.22l-.28-1.27a.28.28 0 0 1 .55-.12l.28 1.27a.28.28 0 0 1-.22.34.23.23 0 0 1-.06 0zm-5.92-1.25a.3.3 0 0 1-.19-.06.28.28 0 0 1-.03-.4l.84-1a.28.28 0 1 1 .44.38l-.85.98a.28.28 0 0 1-.21.1zm5.37-1.29a.28.28 0 0 1-.27-.22l-.28-1.27a.28.28 0 0 1 .55-.12l.28 1.27a.28.28 0 0 1-.22.34.2.2 0 0 1-.06 0zm-3.7-.69a.28.28 0 0 1-.18-.06.28.28 0 0 1-.03-.4l.52-.61c.1-.11.18-.23.27-.35l.03-.03a.29.29 0 0 1 .51.14.28.28 0 0 1-.07.21l-.02.04-.3.36-.51.6a.28.28 0 0 1-.2.1h-.01zm3-1.78a.27.27 0 0 1-.18-.06.78.78 0 0 0-.5-.16c-.15 0-.3.03-.44.1a.28.28 0 1 1-.23-.53c.21-.09.44-.14.67-.14.31 0 .62.1.86.3a.28.28 0 0 1 .04.4.28.28 0 0 1-.22.1zM85.3 48.13a.28.28 0 0 1-.1-.55l.22-.07.12-.42a.28.28 0 0 1 .35-.2.28.28 0 0 1 .2.36l-.1.31.04.1c.02.24-.2.3-.35.36l-.3.1a.27.27 0 0 1-.08 0zm.64-.34zm-.48 13.49a.82.82 0 0 1-.82-.69.28.28 0 0 1 .55-.13c.05.2.14.25.27.25a.84.84 0 0 0 .28-.05.27.27 0 0 1 .36.18.28.28 0 0 1-.19.36 1.46 1.46 0 0 1-.45.08zm1.33-.65a.28.28 0 0 1-.22-.11.28.28 0 0 1 .05-.4l.9-.71a.28.28 0 1 1 .34.44l-.9.72a.27.27 0 0 1-.17.06zm-1.94-.97a.28.28 0 0 1-.27-.27c0-.39 0-.77-.02-1.15a.28.28 0 1 1 .56 0c0 .38 0 .76.02 1.14a.28.28 0 0 1-.27.3l-.02-.02zm3.74-.46a.3.3 0 0 1-.28-.32.28.28 0 0 1 .1-.19l.9-.71a.28.28 0 1 1 .36.45l-.9.7a.29.29 0 0 1-.18.07zm-3.77-1.84a.28.28 0 0 1-.27-.27v-1.16a.28.28 0 1 1 .56 0v.08c0 .36 0 .71.02 1.07a.28.28 0 0 1-.28.28h-.03zm0-2.3a.28.28 0 0 1-.27-.25 1.97 1.97 0 0 0-.04-.22c-.04-.18-.18-.27-.42-.41l-.05-.03a.28.28 0 0 1 .3-.49l.05.03c.32.15.57.43.67.77.03.1.04.2.05.3a.28.28 0 0 1-.26.3h-.03zm-1.6-1.5a.27.27 0 0 1-.15-.05l-.96-.64a.28.28 0 0 1 .31-.47l.96.63a.28.28 0 0 1-.16.52zm-1.92-1.28a.27.27 0 0 1-.16-.05l-.95-.63a.3.3 0 0 1-.08-.4.28.28 0 0 1 .4-.08l.94.64a.28.28 0 0 1 .08.39.28.28 0 0 1-.22.13h-.01zm-1.86-1.32a.28.28 0 0 1-.25-.15.82.82 0 0 1-.11-.4c0-.34.22-.65.64-.9a.28.28 0 1 1 .3.48c-.24.14-.38.3-.38.42a.28.28 0 0 0 .04.13.28.28 0 0 1-.1.38.29.29 0 0 1-.14.04zm1.5-1.36a.28.28 0 1 1-.1-.55 43.02 43.02 0 0 1 1.1-.37.29.29 0 1 1 .17.55 54.17 54.17 0 0 0-1.08.37.27.27 0 0 1-.09 0zm2.17-.73a.28.28 0 0 1-.27-.2.28.28 0 0 1 .18-.35l.77-.26.31-.1a.29.29 0 1 1 .19.54l-.31.11-.78.27a.35.35 0 0 1-.08 0zm7.27 8.87a.28.28 0 0 1-.2-.49c.14-.14.3-.27.48-.4a.27.27 0 0 1 .27 0c.03 0 .06.02.09.05l.1.03.1.03.2.08a.29.29 0 0 1-.17.55 2.54 2.54 0 0 1-.28-.1h-.03l-.12-.04a3.42 3.42 0 0 0-.25.23.27.27 0 0 1-.2.06zm6.5 1.46a.28.28 0 0 1-.02-.57.74.74 0 0 0 .21-.05.67.67 0 0 0 .44-.38.28.28 0 0 1 .36-.18.28.28 0 0 1 .18.36 1.2 1.2 0 0 1-.77.73c-.12.05-.25.08-.38.09h-.02zm-1.12-.26a.3.3 0 0 1-.09-.01l-1.1-.34a.29.29 0 0 1 .17-.55l1.1.34a.28.28 0 0 1 .2.35.28.28 0 0 1-.28.21zm-2.22-.68a.27.27 0 0 1-.08 0l-1.1-.34a.28.28 0 0 1-.19-.36.28.28 0 0 1 .36-.19l1.1.35a.28.28 0 0 1 .18.35.28.28 0 0 1-.27.19zm4.04-.8a.28.28 0 0 1-.28-.2c-.1-.32-.23-.67-.4-1.08a.28.28 0 0 1 .54-.2l.4 1.1a.28.28 0 0 1-.28.37h.02zm-.83-2.18a.28.28 0 0 1-.27-.18 92.42 92.42 0 0 1-.42-1.1.28.28 0 0 1 .17-.36.27.27 0 0 1 .36.17l.42 1.07a.28.28 0 0 1-.16.37.27.27 0 0 1-.09.03zm-.84-2.16a.28.28 0 0 1-.27-.18 5.65 5.65 0 0 1-.16-.5.95.95 0 0 1 .18-.86.28.28 0 1 1 .46.33.4.4 0 0 0-.1.25l.01.13.14.45a.28.28 0 0 1-.17.36.3.3 0 0 1-.08.02zm.65-2.03a.27.27 0 0 1-.16-.06.28.28 0 0 1-.07-.4l.67-.94a.28.28 0 1 1 .46.33l-.66.94a.28.28 0 0 1-.23.13zm1.34-1.9a.3.3 0 0 1-.17-.05.28.28 0 0 1-.07-.4l.67-.95a.28.28 0 1 1 .47.33l-.67.95a.28.28 0 0 1-.23.12zm1.32-1.9a.27.27 0 0 1-.12-.03.28.28 0 0 1-.13-.37.47.47 0 0 0 .05-.2c0-.17-.2-.23-.32-.25a.28.28 0 0 1 .1-.55c.44.04.77.38.79.81 0 .15-.04.3-.1.44a.3.3 0 0 1-.26.15zm-6.25-.62h-.18a1.08 1.08 0 0 1-.83-.56l-.08-.12-.04-.04a.28.28 0 0 1 .46-.34l.03.04.1.13c.16.23.22.31.41.33h.14a.28.28 0 0 1-.01.57zm1.16-.05a.28.28 0 0 1-.02-.57l.4-.03.76-.03a.28.28 0 0 1 .03.56l-.76.04c-.14 0-.28.02-.39.03h-.02zm2.31-.13a.28.28 0 0 1-.01-.57l1.16-.05a.27.27 0 0 1 .3.27.28.28 0 0 1-.28.3c-.33 0-.69.02-1.15.04h-.02zm-10.32-.16a.25.25 0 0 1-.08 0 .28.28 0 0 1-.2-.35l.32-1.12a.28.28 0 0 1 .34-.2.28.28 0 0 1 .2.36l-.31 1.1a.28.28 0 0 1-.26.2h-.01zm5.26-1.2a.28.28 0 0 1-.22-.12l-.7-.93a.28.28 0 0 1 .45-.34l.7.92a.28.28 0 0 1-.06.4.27.27 0 0 1-.16.06h-.01zm-4.62-1.03a.37.37 0 0 1-.08 0 .28.28 0 0 1-.2-.36l.2-.68.1-.39v-.03a.28.28 0 1 1 .55.13v.04l-.1.4-.2.69a.28.28 0 0 1-.27.2zm3.25-.83a.28.28 0 0 1-.23-.11l-.7-.93a.28.28 0 0 1 .06-.4.27.27 0 0 1 .4.06l.7.93a.28.28 0 0 1-.23.45zm-2.53-1.37a.27.27 0 0 1-.19-.07.28.28 0 0 1-.02-.4c.26-.3.64-.49 1.04-.5.09 0 .18.01.27.04a.28.28 0 0 1-.15.55.53.53 0 0 0-.13-.02.87.87 0 0 0-.62.3.28.28 0 0 1-.21.1zm-73.25-9.4a1.1 1.1 0 0 1-.2-.02l-.3-.05a.28.28 0 0 1-.23-.33.28.28 0 0 1 .33-.23l.22.04.11-.12.19-.2a.28.28 0 0 1 .4 0 .3.3 0 0 1 0 .4l-.18.2-.04.04c0 .04 0 .07-.02.1a.27.27 0 0 1-.28.18zm.13-.1l-.04.04a.2.2 0 0 0 .04-.04zM8.01 44.17h-.06c-.77-.14-.86-.65-.86-.86 0-.09.02-.18.04-.27a.28.28 0 1 1 .55.14.51.51 0 0 0-.02.14c0 .06 0 .22.4.3a.28.28 0 0 1-.05.55zm1.14-.05a.28.28 0 0 1-.05-.55l1.13-.2a.28.28 0 0 1 .1.55l-1.14.2h-.05zm2.26-.4a.28.28 0 1 1-.05-.56l1.14-.2a.28.28 0 0 1 .1.55l-1.14.2-.05.02zM7.9 42.36a.27.27 0 0 1-.13-.03.28.28 0 0 1-.12-.38l.53-1.02a.29.29 0 1 1 .5.27l-.53 1.02a.28.28 0 0 1-.25.14zm1.06-2.03a.27.27 0 0 1-.13-.03.28.28 0 0 1-.11-.39l.49-.95.04-.07a.28.28 0 1 1 .5.27l-.04.07-.5.94a.28.28 0 0 1-.25.15zm1.1-2.03a.27.27 0 0 1-.1-.02.28.28 0 0 1-.16-.37c.03-.07.06-.14.07-.2a.35.35 0 0 0 .02-.11 1 1 0 0 0-.19-.46l-.03-.05a.28.28 0 0 1 .5-.28l.02.05c.16.22.26.48.28.75 0 .08-.01.17-.04.25a2.3 2.3 0 0 1-.1.27.28.28 0 0 1-.27.17zm-.68-2.08a.28.28 0 0 1-.25-.15l-.55-1.02a.28.28 0 0 1 .12-.39.27.27 0 0 1 .38.12l.55 1.02a.28.28 0 0 1-.25.42zM8.3 34.17a.28.28 0 0 1-.25-.15L7.5 33a.28.28 0 0 1 .12-.38.27.27 0 0 1 .38.12l.55 1.01a.28.28 0 0 1-.12.39.3.3 0 0 1-.13.03zm4.35-1.94h-.05l-.32-.05-.83-.14a.28.28 0 0 1 .1-.55l.8.14.33.05a.28.28 0 0 1-.04.57v-.02zm-5.36-.1a.28.28 0 0 1-.28-.28c0-.53.41-.86 1.1-.89a.28.28 0 0 1 .02.57c-.36.02-.55.12-.55.32a.28.28 0 0 1-.27.29l-.02-.02zm3.1-.3h-.06l-1.12-.19a.28.28 0 0 1-.24-.32.28.28 0 0 1 .32-.24c.33.05.7.11 1.14.2a.28.28 0 0 1-.05.54v.01zm4.19 11.78a.27.27 0 0 1-.2-.09 2.41 2.41 0 0 1-.2-.2l-.02-.03-.08-.1a5.4 5.4 0 0 0-.34.1.28.28 0 1 1-.14-.56c.2-.06.4-.1.6-.12a.28.28 0 0 1 .25.11.3.3 0 0 1 .04.1l.07.06a.48.48 0 0 1 .08.08l.14.17a.28.28 0 0 1 0 .4.27.27 0 0 1-.2.08zm4.6 4.15a1.57 1.57 0 0 1-.6-.12.28.28 0 0 1 .24-.51c.06.03.13.05.2.05a.66.66 0 0 0 .57-.12.27.27 0 0 1 .4 0 .28.28 0 0 1 0 .4 1.13 1.13 0 0 1-.81.3zm-1.33-.85a.28.28 0 0 1-.2-.09l-.83-.82a.29.29 0 0 1 .4-.4l.83.82a.28.28 0 0 1-.2.48zm2.3-.44h-.04a.28.28 0 0 1-.23-.33l.16-1.14a.28.28 0 1 1 .57.08l-.17 1.15a.28.28 0 0 1-.3.24h.01zm-3.93-1.22a.3.3 0 0 1-.2-.08l-.82-.83a.28.28 0 0 1 .4-.4l.83.83a.28.28 0 0 1 0 .4.3.3 0 0 1-.22.08h.01zm4.25-1.08h-.03a.28.28 0 0 1-.25-.32l.15-1.15a.28.28 0 1 1 .55.08l-.15 1.14a.28.28 0 0 1-.28.25h.01zm.28-2.3h-.04a.28.28 0 0 1-.25-.32l.1-.52a.92.92 0 0 1 .55-.67.28.28 0 1 1 .25.51.37.37 0 0 0-.25.3l-.1.46a.28.28 0 0 1-.26.24zm1.54-1.49a.28.28 0 1 1-.13-.55l1.04-.51a.27.27 0 0 1 .38.13.28.28 0 0 1-.13.38l-1.03.52a.29.29 0 0 1-.13.03zm2.07-1.03a.28.28 0 1 1-.12-.55l1.03-.51a.27.27 0 0 1 .38.12.28.28 0 0 1-.12.38l-1.04.52a.27.27 0 0 1-.13.04zm2.07-1.03a.28.28 0 0 1-.17-.52.34.34 0 0 0 .17-.23.43.43 0 0 0-.18-.28.28.28 0 0 1 .35-.44.95.95 0 0 1 .4.73.85.85 0 0 1-.4.69.27.27 0 0 1-.17.05zm-1.02-1.53a.27.27 0 0 1-.13-.03 62.34 62.34 0 0 0-1.03-.5.28.28 0 0 1 .24-.52l1.05.5a.28.28 0 0 1-.13.56v-.01zm-2.09-1a.27.27 0 0 1-.12-.03l-.69-.33a6 6 0 0 0-.34-.16.28.28 0 0 1 .22-.52l.37.17.69.33a.28.28 0 0 1-.12.55zm-2.1-1a.27.27 0 0 1-.14-.03l-.14-.1a1.08 1.08 0 0 1-.45-.88c0-.05 0-.1-.02-.15v-.05a.28.28 0 0 1 .55-.09v.06l.02.16c.03.27.05.38.2.48l.13.08a.28.28 0 0 1 .09.39.28.28 0 0 1-.23.14zm-.66-2.1a.28.28 0 0 1-.27-.24l-.17-1.15a.28.28 0 1 1 .55-.09l.17 1.15a.28.28 0 0 1-.24.32h-.04zm-5.21-1.45a.27.27 0 0 1-.2-.08.28.28 0 0 1 0-.4l.8-.83a.28.28 0 1 1 .41.4l-.8.82a.29.29 0 0 1-.18.08h-.03zm4.86-.85a.28.28 0 0 1-.28-.24L19.78 29a.29.29 0 0 1 .24-.32.27.27 0 0 1 .32.24l.17 1.15a.28.28 0 0 1-.24.32l-.05.01zm-3.25-.82a.28.28 0 0 1-.2-.48l.5-.52.28-.3.03-.02a.28.28 0 1 1 .42.38l-.03.03-.28.3-.5.51a.27.27 0 0 1-.2.1h-.02zm2.76-1.41a.27.27 0 0 1-.2-.08.66.66 0 0 0-.46-.17.93.93 0 0 0-.33.06.28.28 0 1 1-.2-.53c.17-.06.35-.1.53-.1.31 0 .62.11.86.33a.28.28 0 0 1-.2.48z"/></g></svg>